<svg xmlns="http://www.w3.org/2000/svg" viewBox="-50 -50 1070 1021">
  <g fill="#C9A654" fill-rule="evenodd">
    <path fill-rule="nonzero" d="M470.5 24C226.7 24 29 219.6 29 461s197.7 437 441.5 437C714.4 898 912 702.4 912 461S714.4 24 470.5 24zm0 819.7C257.4 843.7 84 672.1 84 461 84 250 257.4 78.2 470.5 78.2S857 250 857 461 683.6 843.7 470.5 843.7z"/>
    <path fill-rule="nonzero" d="M470.5 110c196 0 355.5 158 355.5 352S666.5 814 470.5 814 115 656 115 462s159.5-352 355.5-352zM342.1 451.8v43.7h44.4v63.1h-44.4V600h44.4v88h50v-88.1h100.6v-41.3H436.5v-63.1h63.1c20.4 0 39.4-2.5 56.9-7.5s32.7-12.6 45.6-22.8a109 109 0 0 0 30.6-38.4 123 123 0 0 0 11.3-54.4 125 125 0 0 0-10.6-53.8c-7.1-15-16.9-27.4-29.4-37.2a126 126 0 0 0-45-21.8 219.9 219.9 0 0 0-58.1-7.2H386.5v199.3h-44.4z"/>
    <path d="M500.9 451.8c28.7 0 51.3-6.6 67.8-19.7 16.4-13.2 24.7-33 24.7-59.7 0-26.7-8.3-46-24.7-58.1-16.5-12.1-39-18.2-67.8-18.2h-64.4v155.6h64.4z"/>
  </g>
</svg>
