<svg xmlns="http://www.w3.org/2000/svg" viewBox="0 0 128 128">
    <g fill="#C9A654" fill-rule="evenodd">
        <path d="M70.4 13.3c3.2-.8 5.3-1.2 7-1.2 1.8 0 3.2.4 4.8 1.2 2.1 1 3.1 2 6 5.4 3.8 4.7 5.6 6 11.3 8.2 8.5 3.4 10 5.5 10.8 15.8.5 5.7 1 7 4 11.6 3 4.7 3.7 6.6 3.7 9.6s-1 5.4-4.2 10.3c-2.5 4-3 5.5-3.4 11.5-.5 6-1.1 8.3-3 10.6-1.7 1.8-3.6 3-8.6 5a20.5 20.5 0 0 0-10.2 7.5c-3.6 4.5-5.9 6.2-9 6.8-2.3.5-3.3.4-9-1-5.1-1.3-8-1.3-12.9 0-5.4 1.6-9 1.6-12 0-1.2-.7-3-2.2-4.2-3.6-6-7-6.7-7.5-13-10-8.2-3.3-9.8-5.5-10.6-14.5-.4-6.2-1-8-3.8-12.4-5.3-8.4-5.4-11.4-.7-18.9 3.5-5.5 3.8-6.4 4.4-13 .8-9.6 2.3-11.8 10.5-15 6-2.5 7.4-3.4 11.1-8 3.2-4 5.2-5.6 7.8-6.5 2.3-.8 4.7-.7 10 .6a20 20 0 0 0 13.2 0zm-15.6 88.3a44.6 44.6 0 0 0 18 .2A39.7 39.7 0 0 0 101.6 74c.8-2.7 1-4 .9-10.1 0-6.5 0-7.3-1-10.6-4.2-13.2-14-23-27.3-26.8-2.4-.7-4.3-.9-9-1-6.5-.1-6.5-.1-11.2 1a41 41 0 0 0-21.9 15.3 38.8 38.8 0 0 0 22.7 59.8z"/>
        <path d="M57.6 32.6A32.3 32.3 0 0 1 90.3 46a28.2 28.2 0 0 1 5.3 17.7c0 6.4-.6 9-3.3 14.2a31.3 31.3 0 0 1-25 17.6c-9 1.1-18.3-2-25.2-8.6a31.9 31.9 0 0 1 15.5-54.2zM79 47L59.7 69.5l-10.2-9.2c-.7-.7-1.6-.7-2.5 0a20 20 0 0 0-2.9 2.8c-.8 1-1 1.8-.5 2.6L58 84.1c1 1.3 2.1 1.3 3.3 0l23.2-32.6c.5-.8.5-1.4 0-1.9a27 27 0 0 0-3.8-3c-.6-.3-1.2-.2-1.7.4z"/>
    </g>
</svg>
