<svg xmlns="http://www.w3.org/2000/svg" viewBox="0 0 64 64">
  <g fill="#883E29" fill-rule="evenodd">
    <path d="M23.27 9.697l2.725 5.346-2.673 1.362-2.724-5.346zm9.566-1.767l.523 5.98-2.99.26-.53-5.977zm8.828 1.425l-1.654 5.767-2.884-.827 1.654-5.767zm7.768 4.62l-3.776 4.663-2.332-1.888 3.776-4.663zm5.464 7.223l-5.196 3-1.5-2.598 5.196-3zm2.334 8.67l-5.943.834-.417-2.97 5.94-.836zM16.36 27.58c-.3 1.29-.46 2.637-.46 4.02 0 9.775 7.925 17.7 17.7 17.7 8.77 0 16.052-6.38 17.456-14.752l6.23 1.35C55.42 47.3 45.526 56 33.6 56c-13.255 0-24-10.745-24-24 0-2.044.255-4.028.736-5.922L6.8 25.196l9.65-8.082 3.843 11.446-3.934-.98z"/>
    <path d="M24.172 33.71c0 .482.078.88.233 1.196.288.58.81.87 1.57.87.464 0 .87-.158 1.215-.476.346-.318.52-.776.52-1.374 0-.79-.322-1.32-.964-1.585-.366-.15-.94-.22-1.727-.22v-1.69c.76-.01 1.3-.08 1.61-.22.52-.23.78-.7.78-1.41 0-.46-.14-.83-.41-1.12-.27-.29-.65-.43-1.14-.43-.56 0-.97.18-1.23.53-.27.36-.39.83-.38 1.42h-2.2c.02-.59.12-1.16.3-1.7.193-.47.5-.9.912-1.3.31-.28.677-.5 1.103-.65.425-.15.95-.22 1.57-.22 1.15 0 2.077.3 2.783.9s1.07 1.38 1.07 2.38c0 .71-.21 1.31-.63 1.798-.268.305-.545.513-.83.624.213 0 .523.186.93.557.6.556.902 1.32.902 2.29 0 1.016-.355 1.91-1.06 2.683-.706.773-1.75 1.16-3.134 1.16-1.7 0-2.89-.557-3.55-1.67-.35-.592-.54-1.366-.58-2.324h2.33zm7.796-3.166h4.765v2.24h-4.765v-2.24zm8.8 3.64c.094.514.274.91.54 1.19.265.28.652.42 1.16.42.588 0 1.035-.206 1.342-.62.307-.41.46-.93.46-1.555 0-.62-.143-1.14-.43-1.56-.29-.43-.737-.64-1.346-.64-.288 0-.537.03-.747.11-.37.13-.65.38-.838.74l-2.13-.1.84-6.65h6.63v2.01h-4.92l-.43 2.63c.36-.24.65-.4.85-.48.34-.13.76-.19 1.25-.19.99 0 1.86.33 2.6 1 .74.67 1.11 1.64 1.11 2.92 0 1.11-.357 2.1-1.07 2.98-.715.87-1.783 1.31-3.205 1.31-1.144 0-2.085-.31-2.82-.93-.737-.615-1.147-1.487-1.23-2.615h2.36z"/>
  </g>
</svg>
