<svg xmlns="http://www.w3.org/2000/svg" viewBox="0 -100 981 853">
  <path fill="#C9A654" d="M355.5 752c-248.2.5-366.4-23.9-354.5-73.2 0-122.3 272.5-96.1 272.5-215.2 0-10.8.4-21.5.2-34.1-13-14.3-42.7-51-54.5-101.2-12.1-5.6-22.1-17.6-28.4-34.5-8.9-23.7-9.5-56.4 7.8-77.6-3.4-30.8-12-109.7 35.4-161.4A168 168 0 0 1 355.5.1 168 168 0 0 1 477 54.8c47.4 51.7 38.8 130.6 35.5 160.3 17.1 22.3 16.4 55 7.6 78.7-6.3 16.8-16.5 28.9-28.5 34.5a237.8 237.8 0 0 1-54.7 101.2 2258 2258 0 0 0-.3 35.4c-.2 116.8 274.1 90.6 274.1 213.9-.9 19.8 17.1 72.5-355.2 73.3zm-.5-89.7l54.7 39-20.2-64 54-40-67.2-.7L355 533l-21.3 63.6-67.1.7 53.9 40-20.2 64 54.7-39zm-160 14.4l31.2 22.2-11.5-36.5 30.7-22.8-38.2-.3L195 603l-12.2 36.3-38.2.3 30.7 22.8-11.5 36.5 31.2-22.2zm319.2 0l31.1 22.3-11.4-36.5 30.7-22.8-38.3-.3-12.1-36.3-12.2 36.3-38.2.3 30.7 22.8L483 699l31.2-22.2zM880.9 648c-67.5 4-102.1 2.8-104-3.8-20.6-35-48.5-61-83.6-78-59.2-28.6-143.2-37.5-111-50.5 36.5-14.7 65.7-33.1 65.7-67.2 0-8.3.3-16.3.2-26a181.2 181.2 0 0 1-41.6-77.1 45.4 45.4 0 0 1-21.7-26.3c-6.8-18-7.3-43 5.9-59.1-2.5-23.4-9.1-83.5 27-122.9 20.8-22.7 52-40.6 92.6-41.7 40.6 1.1 71.8 19 92.6 41.7 36.1 39.4 29.5 99.5 27.1 122.1 13 17 12.5 41.9 5.7 59.9a45.8 45.8 0 0 1-21.7 26.3c-9 38.2-31.8 66.2-41.7 77.1l-.2 27c-.1 89 208.8 69.1 208.8 163 .7 19.6-32.7 31.5-100.1 35.5z"/>
</svg>
