<svg xmlns="http://www.w3.org/2000/svg" viewBox="-100 0 1100 1000">
  <g fill="#C9A654">
    <path d="M702.5 578.1c-113.5 0-206 92.4-206 206a206.2 206.2 0 0 0 206 205.9 206.2 206.2 0 0 0 205.9-205.9c0-113.6-92.4-206-205.9-206zm-16.2 295.7l-101.9-102 24.6-24.6 77.3 77.3L810 700.9l24.6 24.6-148.3 148.3z"/>
  <path d="M466 786.8c0-84.8 44.3-159 110.7-201.6l-.1-5.1a19 19 0 0 0 6.7-9.4l3.5-11.5 3.6-3c4.2-3.4 6.8-8.3 7.3-13.7 1.7-18.4 6.4-42.3 10.6-48.7 15-23.2 33.7-73.9 39.9-91.4a66.2 66.2 0 0 0 22.9-49 65 65 0 0 0-17.8-44c4.6-21.4 13.5-68 13.5-103.9 0-115.2-89-195.6-216.4-195.6h-1C322 10 233 90.4 233 205.6c0 35.9 9 82.5 13.5 103.9a64.2 64.2 0 0 0-17.8 44 66.2 66.2 0 0 0 22.9 49c6.2 17.5 24.8 68.2 39.9 91.4 4.2 6.4 8.8 30.3 10.6 48.7.5 5.4 3.1 10.3 7.3 13.7l3.7 3 3.5 11.5a20 20 0 0 0 6.7 9.4c1 36.2-4.5 66.4-11.3 70.4-5.8 3.4-24.6 8.3-42.7 13.1-20.6 5.4-46.2 12.1-73.6 21.3-98.6 33-107.1 75.4-103.5 97.7 6.4 38.6 56.6 65.7 122.3 65.7H475a237 237 0 0 1-9-61.6z"/>
  </g>
</svg>
