<svg xmlns="http://www.w3.org/2000/svg" viewBox="0 0 64 64">
  <g fill="#883E29" fill-rule="evenodd">
    <path d="M9.2 18.2v1.2h45v27.2h1.4V18.2"/>
    <path d="M12.4 15H59v28.6h-1.6v-27h-45"/>
    <path d="M6 21.4h46.8V50H6V21.4zm23.3 24.8c6 0 10.6-4.7 10.6-10.6C40 29.8 35 25 29 25c-5.8 0-10.6 4.8-10.6 10.6 0 6 4.8 10.6 10.6 10.6z"/>
    <path d="M25.2 40.5H24V39h1.2v-2h-1s-.2 0-.2-.2v-1.3c0-.2 0-.2.2-.2h1v-6.5h6.3c2.8 0 4.2 1.5 4.2 4 0 2.6-1.4 4-4 4.2H27v2h5.5v1.5H27v2h-1.7v-2zm2-10v4.8h4.2c1 0 2.3 0 2.3-2.4s-1.7-2.6-2.3-2.6H27z"/>
  </g>
</svg>
