<svg xmlns="http://www.w3.org/2000/svg" xmlns:xlink="http://www.w3.org/1999/xlink" viewBox="0 0 128 128">
  <defs>
    <path id="a" d="M60.439 1.301C63.572.525 65.704.133 67.45.133c1.768 0 3.141.402 4.759 1.209 2.128 1.044 3.092 1.927 5.904 5.336 3.935 4.736 5.705 6.019 11.408 8.265 8.517 3.371 10.003 5.498 10.806 15.728.441 5.696.883 6.981 3.896 11.634 3.013 4.655 3.775 6.581 3.775 9.549 0 2.968-1.003 5.417-4.177 10.312-2.57 3.97-3.053 5.536-3.454 11.513-.442 6.058-1.084 8.346-3.053 10.632-1.568 1.805-3.494 2.929-8.476 4.894-4.78 1.886-6.667 3.29-10.203 7.623-3.655 4.453-5.904 6.138-8.998 6.78-2.37.481-3.375.361-9.12-1.043-5.061-1.244-7.994-1.244-12.774.12-5.462 1.524-9.119 1.484-12.01-.08-1.246-.682-3.053-2.207-4.218-3.57-6.025-7.062-6.748-7.583-13.096-10.07-8.155-3.251-9.761-5.417-10.484-14.444-.482-6.178-1.045-8.063-3.816-12.437-5.302-8.346-5.422-11.394-.723-18.857 3.494-5.496 3.816-6.378 4.378-13.119.843-9.548 2.33-11.674 10.565-14.964 5.986-2.408 7.352-3.371 11.087-7.944 3.215-3.973 5.183-5.618 7.754-6.54 2.329-.802 4.739-.683 9.962.641 5.985 1.484 7.311 1.484 13.297 0zM44.771 89.648c2.479.619 6.207.931 9.794.931 3.159 0 6.209-.242 8.203-.73 14.059-3.532 24.826-13.883 28.843-27.804.804-2.768.924-4.052.884-10.191 0-6.46-.08-7.302-1.085-10.551-4.098-13.201-13.94-22.91-27.196-26.761-2.37-.722-4.297-.922-9.039-1.002-6.508-.161-6.508-.161-11.167 1.043-8.275 2.085-16.993 8.143-21.893 15.244-10.646 15.487-8.716 36.27 4.538 49.51 4.983 5.015 11.329 8.626 18.118 10.311z"/>
    <path id="c" d="M25.745.76a30.68 30.68 0 0 1 6.117-.612c10.477.001 20.772 5.257 26.62 14.053 3.856 5.818 5.222 10.351 5.222 17.653 0 6.419-.562 8.946-3.214 14.243-4.899 9.909-13.778 16.129-24.985 17.533-9.118 1.123-18.357-2.047-25.267-8.627C4.936 49.988 1.882 44.251.597 37.029-2.296 20.459 8.992 4.171 25.745.76zm21.362 14.389L27.882 37.618a3786.362 3786.362 0 0 1-10.21-9.145c-.753-.684-1.582-.684-2.488 0-1.143.898-2.117 1.823-2.925 2.776-.807.952-.962 1.829-.465 2.631 8.493 10.974 13.268 17.094 14.324 18.358 1.055 1.266 2.168 1.266 3.337 0C44.378 31.322 52.1 20.469 52.62 19.678c.52-.791.52-1.43 0-1.916-1.956-1.742-3.219-2.757-3.788-3.045-.57-.289-1.145-.145-1.725.432z"/>
  </defs>
  <g fill="none" fill-rule="evenodd">
    <g transform="translate(10 12)">
      <mask id="b" fill="#fff">
        <use xlink:href="#a"/>
      </mask>
      <path fill="#C9A654" d="M-4.999 108.863h117.998V-4.867H-4.999z" mask="url(#b)"/>
    </g>
    <g transform="translate(32 32)">
      <mask id="d" fill="#fff">
        <use xlink:href="#c"/>
      </mask>
      <path fill="#C9A654" d="M-4.855 68.852h73.559V-4.852H-4.855z" mask="url(#d)"/>
    </g>
  </g>
</svg>
