<svg xmlns="http://www.w3.org/2000/svg" viewBox="0 0 64 64">
  <g fill="#883E29" fill-rule="evenodd">
    <path d="M28 10h-3V6h13v4h-3v2.265c2.74.418 5.322 1.32 7.655 2.616l2.098-2.52 5.433 4.39-1.986 2.44c3.9 4.122 6.3 9.69 6.3 15.816 0 12.704-10.3 23-23 23s-23-10.296-23-23c0-6.34 2.56-12.077 6.71-16.237l-1.735-2.28 5.49-4.195 1.767 2.38c2.23-1.182 4.675-2.01 7.263-2.403V10zM12.53 36c.55 9.617 8.253 17.32 17.87 17.87V52h2v1.88c10.076-.47 18.1-8.788 18.1-18.98 0-10.493-8.507-19-19-19-10.192 0-18.51 8.024-18.98 18.1h1.88v2h-1.87z"/>
    <path d="M44.15 46.16c2.704-3.012 4.35-6.994 4.35-11.36 0-9.39-7.61-17-17-17V35l12.65 11.16z"/>
  </g>
</svg>
