<svg xmlns="http://www.w3.org/2000/svg" viewBox="0 0 135 40">
  <path fill="#A6A6A6" d="M130.197 40H4.73C2.12 40 0 37.872 0 35.267V4.727C0 2.12 2.122 0 4.73 0h125.467C132.803 0 135 2.12 135 4.726v30.54c0 2.606-2.197 4.734-4.803 4.734z"/>
  <path d="M134.032 35.268c0 2.116-1.714 3.83-3.834 3.83H4.728c-2.118 0-3.838-1.714-3.838-3.83V4.725C.89 2.61 2.61.89 4.73.89h125.467c2.12 0 3.834 1.72 3.834 3.835l.01 30.543z"/>
  <path fill="#FFF" d="M30.128 19.784c-.03-3.223 2.64-4.79 2.76-4.864-1.51-2.203-3.852-2.504-4.675-2.528-1.967-.207-3.875 1.177-4.877 1.177-1.022 0-2.565-1.16-4.228-1.13-2.14.03-4.142 1.27-5.24 3.19-2.266 3.92-.576 9.69 1.595 12.86 1.086 1.55 2.355 3.28 4.016 3.22 1.62-.07 2.23-1.04 4.19-1.04 1.94 0 2.51 1.03 4.2.99 1.74-.03 2.84-1.56 3.89-3.13 1.25-1.78 1.76-3.53 1.78-3.62-.04-.01-3.39-1.29-3.42-5.15zm-3.2-9.478c.874-1.093 1.472-2.58 1.306-4.09-1.265.057-2.847.876-3.758 1.945-.806.95-1.526 2.49-1.34 3.94 1.42.11 2.88-.71 3.792-1.79zm26.717 21.198h-2.27l-1.245-3.91h-4.324l-1.185 3.91h-2.21l4.29-13.308h2.65l4.31 13.308zm-3.89-5.55L48.63 22.48c-.12-.355-.342-1.19-.67-2.507h-.04c-.132.566-.343 1.402-.633 2.507l-1.105 3.475h3.573zm14.907.634c0 1.632-.44 2.922-1.323 3.87-.79.842-1.78 1.263-2.95 1.263-1.27 0-2.17-.45-2.73-1.36h-.04v5.06H55.5V25.07c0-1.026-.027-2.08-.08-3.16h1.876l.12 1.522h.04c.71-1.15 1.79-1.72 3.237-1.72 1.132 0 2.077.447 2.833 1.34.758.898 1.136 2.076 1.136 3.537zm-2.172.078c0-.934-.21-1.704-.632-2.31-.46-.632-1.08-.948-1.856-.948-.526 0-1.004.176-1.43.523-.43.35-.71.81-.84 1.38-.066.27-.1.48-.1.65v1.6c0 .7.215 1.29.643 1.77s.984.72 1.668.72c.803 0 1.428-.31 1.875-.92.448-.62.672-1.43.672-2.45zm13.21-.078c0 1.632-.442 2.922-1.325 3.87-.79.842-1.77 1.263-2.94 1.263-1.265 0-2.173-.45-2.725-1.36h-.04v5.06h-2.132V25.07c0-1.026-.027-2.08-.08-3.16h1.876l.12 1.522h.04c.71-1.15 1.788-1.72 3.237-1.72 1.14 0 2.08.447 2.84 1.34.76.898 1.14 2.076 1.14 3.537zm-2.173.078c0-.934-.21-1.704-.633-2.31-.46-.632-1.078-.948-1.855-.948-.53 0-1.01.176-1.44.523-.43.35-.71.81-.84 1.38-.07.27-.1.48-.1.65v1.6c0 .7.21 1.29.64 1.77.43.48.98.72 1.67.72.8 0 1.43-.31 1.87-.92.45-.62.67-1.43.67-2.45zm14.513 1.106c0 1.132-.394 2.053-1.183 2.764-.867.777-2.074 1.165-3.625 1.165-1.432 0-2.58-.27-3.45-.82l.495-1.77c.936.57 1.963.85 3.082.85.8 0 1.42-.18 1.87-.54.44-.36.67-.84.67-1.45 0-.54-.19-.99-.56-1.36-.37-.37-.98-.71-1.84-1.03-2.33-.87-3.5-2.14-3.5-3.81 0-1.09.41-1.99 1.22-2.69.81-.69 1.9-1.04 3.26-1.04 1.21 0 2.21.21 3.02.63l-.54 1.74c-.75-.41-1.6-.61-2.55-.61-.75 0-1.34.18-1.76.55-.36.33-.54.73-.54 1.21 0 .53.2.96.61 1.31.35.32 1 .66 1.94 1.03 1.14.46 1.98 1 2.53 1.62.54.62.81 1.39.81 2.31zm7.048-4.264h-2.35v4.66c0 1.184.414 1.776 1.244 1.776.38 0 .697-.033.947-.1l.05 1.62c-.42.157-.98.236-1.66.236-.85 0-1.5-.257-1.98-.77-.48-.514-.71-1.376-.71-2.587v-4.837h-1.4v-1.6h1.4V20.15l2.09-.633v2.39h2.35v1.6zm10.602 3.12c0 1.474-.42 2.685-1.263 3.632-.883.975-2.055 1.46-3.516 1.46-1.4 0-2.52-.466-3.36-1.4s-1.25-2.113-1.25-3.534c0-1.487.43-2.705 1.3-3.652.86-.948 2.03-1.422 3.49-1.422 1.41 0 2.54.467 3.4 1.402.82.907 1.23 2.078 1.23 3.513zm-2.21.07c0-.887-.19-1.646-.573-2.28-.447-.766-1.086-1.15-1.914-1.15-.857 0-1.508.385-1.955 1.15-.383.634-.572 1.405-.572 2.317 0 .885.19 1.644.572 2.276.46.77 1.105 1.15 1.936 1.15.814 0 1.453-.39 1.914-1.17.393-.64.59-1.41.59-2.29zm9.14-2.915c-.21-.04-.435-.06-.67-.06-.75 0-1.33.284-1.74.85-.354.5-.532 1.133-.532 1.896v5.03h-2.13l.02-6.58c0-1.11-.028-2.12-.08-3.02h1.856l.078 1.83h.06c.224-.63.58-1.14 1.065-1.52.475-.35.988-.52 1.54-.52.198 0 .376.01.534.04v2.03zm9.536 2.47c0 .38-.025.703-.078.966h-6.396c.025.94.334 1.67.928 2.17.54.44 1.236.67 2.092.67.947 0 1.81-.15 2.588-.46l.334 1.48c-.908.39-1.98.59-3.217.59-1.488 0-2.656-.44-3.506-1.32-.84-.88-1.27-2.05-1.27-3.53 0-1.45.4-2.65 1.19-3.62.83-1.03 1.95-1.54 3.36-1.54 1.39 0 2.43.51 3.14 1.54.57.81.85 1.82.85 3.02zm-2.033-.554c.014-.64-.125-1.18-.414-1.64-.37-.6-.94-.89-1.7-.89-.7 0-1.27.29-1.7.87-.36.46-.57 1.01-.63 1.65h4.44zm-76.7-18.43c.228-.14.484-.25.77-.35.29-.1.627-.15 1.016-.15.62 0 1.12.15 1.48.44s.54.7.54 1.2c0 .4-.12.73-.37 1.01s-.55.45-.93.54V10c.2.036.4.09.58.17.18.08.35.19.48.328.14.14.25.297.33.48.08.18.12.38.12.6 0 .36-.07.665-.22.91s-.34.447-.58.603c-.24.16-.5.27-.79.34s-.58.1-.88.1c-.31 0-.62-.03-.92-.09s-.58-.17-.84-.32l.26-.8c.16.09.38.17.65.24.26.08.53.12.8.12.44 0 .79-.1 1.03-.3.24-.2.36-.47.36-.8 0-.22-.05-.41-.146-.55-.1-.14-.227-.26-.38-.34-.157-.08-.33-.14-.52-.17s-.38-.05-.57-.05h-.44v-.79h.435c.2 0 .385-.027.56-.08.17-.05.32-.124.443-.22s.222-.2.293-.33c.07-.13.11-.274.11-.44 0-.29-.105-.52-.31-.68-.21-.165-.487-.25-.836-.25-.24 0-.48.04-.712.115-.24.08-.45.16-.64.25l-.23-.742zm8.33 6.16l-.075-.55h-.03c-.315.43-.774.65-1.376.65-.214 0-.407-.04-.582-.11s-.327-.17-.456-.29c-.13-.13-.23-.27-.3-.44-.072-.17-.107-.35-.107-.55 0-.59.24-1.03.718-1.33.48-.3 1.157-.44 2.037-.44v-.08c0-.62-.326-.93-.978-.93-.465 0-.875.11-1.23.34l-.212-.69c.433-.27.972-.41 1.617-.41 1.23 0 1.85.65 1.85 1.95v1.74c0 .48.02.86.06 1.12h-.94zm-.143-2.35c-.585 0-1.02.07-1.307.22-.286.14-.43.39-.43.72 0 .24.068.43.203.55.135.12.306.18.512.18.135 0 .263-.03.386-.08.122-.05.23-.11.322-.2.094-.09.17-.19.228-.31.058-.12.086-.25.086-.39v-.73zm6.073-2.37v.86h-1.96v3.85h-1.047v-4.7h3.007zM63.677 11c0 .375-.052.72-.155 1.03-.104.31-.247.575-.432.794-.184.22-.404.395-.66.517-.255.13-.537.19-.848.19-.62 0-1.067-.22-1.34-.67h-.02v2.49h-1.047v-5.08c0-.25-.003-.5-.01-.76-.006-.25-.016-.52-.028-.79h.92l.06.75h.02c.35-.56.88-.84 1.59-.84.278 0 .536.06.772.18.23.12.44.28.61.49.17.21.31.46.41.76.1.3.15.62.15.98zm-1.066.04c0-.234-.02-.45-.08-.646s-.13-.364-.24-.503-.23-.25-.39-.33c-.15-.08-.32-.12-.51-.12-.15 0-.29.04-.43.1s-.26.15-.37.26c-.1.11-.19.24-.25.4-.06.16-.09.32-.09.5v.78c0 .17.03.34.09.49.06.15.13.28.23.39s.22.2.36.26c.14.06.29.09.46.09.4 0 .7-.15.92-.45s.34-.7.34-1.21zm6.7-2.338l-1.19 3.267c-.28.77-.56 1.41-.82 1.9-.27.49-.52.85-.77 1.08-.36.32-.75.52-1.15.59l-.25-.88c.27-.07.53-.21.78-.42s.44-.47.59-.78c.05-.11.08-.18.08-.22 0-.04-.02-.12-.06-.23L64.8 8.7h1.16l.893 2.63c.05.12.09.26.14.415l.144.516h.02c.03-.1.068-.23.106-.39.04-.16.09-.34.153-.55l.796-2.62h1.11zm1.82 1.956h.49c.36 0 .63-.063.83-.193s.29-.29.29-.478c0-.196-.08-.35-.24-.467-.16-.115-.39-.174-.68-.174-.18 0-.37.03-.56.096-.19.06-.37.136-.53.226L70.44 9c.27-.15.54-.25.81-.306.27-.056.54-.084.81-.084.21 0 .43.02.64.064.21.04.41.112.57.212s.308.23.41.392c.11.165.16.365.16.605 0 .15-.03.28-.09.39-.053.113-.13.213-.23.3-.094.087-.203.16-.322.213-.12.056-.24.097-.36.12v.03c.16.02.31.06.45.12.15.057.28.133.4.227s.21.208.29.34c.07.133.103.283.103.45 0 .28-.07.51-.2.7-.14.19-.31.336-.52.446-.21.11-.44.19-.7.23-.25.05-.49.07-.73.07-.29 0-.58-.03-.86-.1-.283-.06-.54-.16-.77-.29l.27-.69c.17.09.36.17.58.23s.44.09.666.09c.35 0 .63-.07.82-.21.19-.14.28-.31.28-.52 0-.14-.03-.25-.097-.34s-.16-.17-.27-.23c-.12-.06-.257-.1-.41-.12-.157-.03-.327-.04-.507-.04h-.496v-.67zm5.6-1.957v1.67c0 .38 0 .73-.02 1.03-.01.3-.03.62-.05.96l.02.02.37-.73c.12-.23.24-.47.37-.72l1.16-2.23h1.36v4.72h-.99v-1.66c0-.35.01-.69.03-1.04.02-.35.03-.7.05-1.06h-.05c-.1.29-.21.54-.33.76-.1.22-.21.44-.32.66l-.6 1.17c-.19.39-.4.79-.62 1.2h-1.36V8.72h1zm8.73 0v.86h-1.44v3.85h-1.03V9.58h-1.43v-.86h3.89zm5.35 2.13c0 .09 0 .18-.01.26 0 .08-.01.16-.03.22h-3.15c.02.45.16.79.43 1.03.27.25.62.37 1.06.37.46 0 .89-.07 1.27-.22l.17.73c-.44.2-.97.29-1.58.29-.37 0-.7-.05-.99-.17-.29-.11-.53-.27-.73-.48-.2-.2-.36-.45-.46-.74-.11-.29-.16-.61-.16-.98s.05-.69.16-1c.1-.31.25-.57.45-.8.19-.23.43-.4.7-.53.27-.13.58-.19.92-.19.29 0 .56.06.81.16.24.11.45.26.62.46.17.2.3.44.39.71.09.28.14.58.14.92zm-1-.27c0-.37-.09-.67-.26-.89s-.43-.34-.77-.34c-.3 0-.56.12-.77.35s-.33.53-.37.89h2.18zm5.22-1.82c.19-.03.43-.06.72-.08s.59-.03.9-.03c.2 0 .42.02.66.04s.48.08.7.16c.22.08.41.2.55.37s.23.38.23.66c0 .14-.03.27-.08.38-.05.11-.12.21-.21.3s-.18.16-.3.21c-.11.06-.23.1-.35.12l.01.03c.34.06.62.18.84.37s.32.45.32.78-.09.59-.27.79c-.18.196-.4.34-.67.44-.27.096-.54.16-.84.184-.29.026-.56.04-.79.04-.26 0-.51-.01-.76-.02l-.62-.04V8.75zm1.01 1.88h.53c.17 0 .32-.01.47-.03.15-.02.27-.06.38-.1.11-.05.2-.11.26-.19s.09-.18.09-.29c0-.21-.08-.37-.26-.47-.17-.1-.45-.15-.83-.15-.11 0-.21.01-.29.01l-.33.03v1.21zm0 2.09l.33.03c.09.01.19.01.31.01.14 0 .29-.01.44-.03.15-.02.29-.05.41-.11.13-.05.22-.13.3-.22.08-.09.12-.21.12-.37 0-.27-.12-.45-.36-.56-.24-.1-.56-.15-.97-.15h-.55v1.41z"/>
</svg>
