<svg xmlns="http://www.w3.org/2000/svg" viewBox="0 40 349.499 166.393">
  <path fill="#010101" d="M67.62 127.892c-.1 0-.195.025-.295.03-.098-.004-.19-.03-.29-.03H44.508c-3.622 0-6.59 2.964-6.59 6.588s2.968 6.587 6.59 6.587h9.28c-.31 1.027-.947 2.31-1.862 3.648-2.582 3.77-8.73 7.96-14.34 7.96-14.45 0-21.12-11.662-21.12-26.046 0-14.39 9.51-25.51 23.962-25.51 4.658 0 8.204.76 11.74 2.79 1.276.73 2.564 1.57 3.838 2.38l3.976 3.06c2.87 2.21 7.025 1.67 9.24-1.2 1.99-2.59 1.445-6.19-.434-8.52-3.025-3.67-6.595-5.95-6.595-5.95C55.828 89.4 48.15 86.9 39.89 86.9 17.86 86.913 0 104.69 0 126.623s13.1 39.71 35.133 39.71c8.852 0 19.5-3.454 25.9-12.646v6.11c0 3.624 2.963 6.59 6.587 6.59s6.588-2.966 6.588-6.59v-25.32c0-3.626-2.964-6.59-6.588-6.59M124.2 149.8c-1.036.438-6.984 3.384-15.17 3.384-12.382 0-13.662-10.498-13.686-12.006-.024-1.522.064-1.414.064-1.414H125.4c9.157 0 8.24-9.004 8.24-9.004 0-11.514-6.984-25.853-26.083-25.853s-25.513 15.6-26.55 21.546c-1.037 5.948-4.118 25.75 12.035 35.574 16.152 9.82 32.523 0 32.523 0 5.034-2.387 8.786-7.027 6.18-11-2.12-3.228-6.508-1.66-7.545-1.224M95.28 128.77c0-6.855 5.484-11.72 12.25-11.72s12.25 4.864 12.25 11.72c0 .19-.148.246-.148.246H95.48c-.263 0-.2-.246-.2-.246"/>
  <path fill="#020202" d="M172.184 156.47c-.548-.9-1.29-1.583-2.23-2.054-.667-.312-1.352-.527-2.057-.647-.7-.12-1.545-.22-2.52-.3-.98-.04-1.784-.22-2.41-.53-.627-.31-1.124-.7-1.497-1.18-.372-.47-.635-1.03-.793-1.68-.157-.65-.233-1.32-.233-2.03v-30.33h2.79c3.218 0 5.85-2.63 5.85-5.85v-.22c0-3.22-2.632-5.85-5.85-5.85h-2.81V94.59c0-4.175-3.417-7.59-7.592-7.59s-7.59 3.415-7.59 7.59v11.23h-2.793c-3.22 0-5.85 2.635-5.85 5.85v.22c0 3.22 2.63 5.85 5.85 5.85h2.73v31.15c0 2.235.32 4.394.97 6.488.64 2.093 1.68 3.964 3.11 5.607 1.42 1.643 3.25 2.953 5.49 3.934 2.23.98 4.93 1.47 8.1 1.47h.82c1.48 0 2.73-.1 3.75-.27 1.01-.18 1.85-.44 2.52-.8.9-.47 1.63-1.15 2.2-2.06.56-.9.85-2.04.85-3.41s-.28-2.51-.82-3.41m36.86 0c-.55-.9-1.29-1.59-2.23-2.06-.67-.31-1.36-.53-2.06-.65s-1.55-.22-2.52-.3c-.98-.04-1.79-.22-2.41-.53-.63-.31-1.13-.7-1.5-1.18-.37-.47-.64-1.03-.79-1.678-.16-.648-.24-1.32-.24-2.028V117.7h2.79c3.22 0 5.85-2.63 5.85-5.85v-.22c0-3.215-2.63-5.85-5.85-5.85h-2.81v-11.2c0-4.177-3.42-7.59-7.6-7.59s-7.59 3.413-7.59 7.59v11.23h-2.79c-3.22 0-5.85 2.633-5.85 5.85v.22c0 3.22 2.63 5.85 5.85 5.85h2.73v31.15c0 2.233.32 4.392.97 6.486.65 2.092 1.68 3.963 3.11 5.606 1.42 1.647 3.25 2.957 5.48 3.938 2.23.98 4.93 1.47 8.1 1.47h.82c1.49 0 2.732-.092 3.752-.267 1.02-.176 1.86-.44 2.527-.79.9-.47 1.635-1.15 2.2-2.05.566-.9.85-2.03.85-3.4.004-1.37-.27-2.5-.82-3.4"/>
  <path fill="#010101" d="M340.455 66.854c-4.993 0-9.04 4.047-9.042 9.042 0 4.993 4.05 9.042 9.042 9.042 4.995 0 9.044-4.05 9.044-9.042 0-4.995-4.05-9.042-9.05-9.042m0 16.62c-4.19-.01-7.57-3.394-7.58-7.578 0-4.182 3.39-7.57 7.57-7.576 4.18.007 7.57 3.394 7.57 7.576-.01 4.184-3.39 7.568-7.58 7.577m2.5-6.475c-.27-.29-.61-.552-1.02-.793.83-.12 1.45-.41 1.87-.873.41-.462.62-1.046.62-1.755 0-.558-.14-1.054-.42-1.487-.27-.435-.64-.737-1.1-.906-.45-.17-1.19-.255-2.2-.255h-4.01v9.44h1.91v-3.94h.38c.44 0 .76.03.96.1.2.07.39.2.57.39.18.19.52.66 1.01 1.39l1.38 2.06h2.28l-1.15-1.85c-.46-.74-.82-1.25-1.09-1.54M340 74.91h-1.41v-2.4h1.485c.773 0 1.238.01 1.393.03.31.05.55.175.72.37.17.197.25.45.25.77 0 .283-.064.52-.192.708-.13.19-.31.32-.54.4-.226.08-.797.12-1.71.12"/>
  <path fill="#FBB725" d="M326.842 152.978c0 7.38-6.037 13.414-13.413 13.414h-72.54c-7.39 0-13.42-6.035-13.42-13.414v-72.55c0-7.378 6.03-13.404 13.42-13.404h72.53c7.37 0 13.41 6.026 13.41 13.405v72.54z"/>
  <path fill="#010101" d="M256.32 96.12l1.15-.275.207-1.062.432.02c.79 6.595 1.38 10.856 1.39 14.786.04 19.06-4.13 37.18-4.32 56.8h18.62c1.72-4.72 2.98-10.55 5.17-14.79 1.82 4.29 3.19 9.71 4.23 14.78h19.43c-.96-13.47-1.36-22.71-3.77-39.53 1.46.04 2.25-.25 3.29-.61-3.55-11.52-4.89-44.02-1.24-61.03.72-1.95 4.13-10.54 4.13-16.48 0 0 .58-2.2 1.24-4.73.11-.29 2.17-5.3 3.63-10.52 1.38-4.88 2.18-10.03 2.18-10.03l1.32-3.96s1.01-1.01 1.83-2.23c.8-1.15 1.41-2.51 1.41-2.51s.36-.518 1.17-1.018c.54-.344 1.45-.6 1.45-.6l4.05-.736s1.32-.225 1.11-.93c-.2-.715-2.1-.634-2.1-.634s-4.53.508-4.75.25c-.22-.26 5.07-4.072 5.07-4.072s1.41-1.17.92-1.984c-.49-.814-2.168.42-2.168.42s-5.15 3.53-5.567 3.56c-.396.04 3.73-5.69 3.73-5.69s1.246-1.75.586-2.49c-.66-.72-1.89.84-1.89.84s-4.47 5.44-4.684 5.68c-.23.26-.605-.05-.86-.37-.22-.28-.086-.8-.086-.8l.68-4.69s.01-1.126-.89-1.43c-.95-.33-1.34.875-1.34.875l-1.815 6.89s-.93 1.48-2.168 1.92c-.948.34-2.27-.335-2.27-.335s-.89-1.137-1.888-1.81c-.63-.41-1.52-.49-1.52-.49s-1.62-.12-2.29.733c-.3.39.83.9.83.9s1.28.65 2.02 1.51c.49.564.55 1.478.55 1.478s-.16.55.6 1.77c.55.89 2.08 2.56 2.08 2.56s.463.74.666 1.51l-.06 1.87c-.09.34-.19.56-.19.56l-3.39 8.88s-1.345 2.67-2.7 5.82c-1.51 3.49-3.09 7.58-3.8 8.95l-.06.3-.08.116s-1.07 1.57-2.072 3.437c-1.003 1.863-3.855 3.73-3.98 3.894-.11.18-3.194.71-4.974 3.1-1.774 2.39-3.893 2.82-3.893 2.82l-.51-.1s-.764-2.85-1.036-3.73c-.28-.88-.24-1.45-.24-1.45s1.69-1.67 1.66-2.347c-.043-.68-.28-6.484-1.14-7.8-.864-1.33-1.275-3.06-1.446-3.77-.17-.72-.878-2.42-1.46-2.93-.585-.51-2-1.59-2.173-1.87-.17-.264-.82-1.42-1.66-1.832-.83-.4-.65-.98-1.195-1.553-.56-.582-1.15-.642-1.15-.642s.59.407.27.75l-.23.258-.07.09c-.14.13-1.15-.1-1.63.06-.474.17-1.034.51-1.034.51s-.66-.74-1.857-.34c-1.21.41.58-.06.58.375 0 .45-.336.47-.44.47-.107 0-1.005.89-1.6.85-.58-.03-1.28.75-1.42.86l-1.2-.106-.48-.38-.042-.04.074.32c0 .23.34.34.036.81-.3.48-.62.64-.8 1.15-.16.51-.78 1.466-1 1.297-.2-.17-.41-.14-.13-.58.28-.44.48-.475.48-.475s-.96-.166-.895 1.09c0 0-1.45.31-1.487.96 0 0 .446-.52.93-.09l-.445.18s-.21.82-.187 1.426c.04.616-.208.237-.338.28-.137.03-.937 2.2-.937 2.92 0 .45-.17.4-.29.237.06.263.07.623-.1.743-.303.237.484.347.417 1.157-.067.815-.93 1.5-.93 1.5l.684.134.115.3.2-.07s.46 1.46.49 2c.04.55.14.1.178-.03l.04-.14s.676 1.57 2.44 3.466c1.77 1.9 5.293 4.07 5.57 5.3 0 0 .89 5.06.41 5.765l-1.893-.024-.16.8s-.408.68-.75.99c-.337.306-1.277 1.135-1.277 1.135l-1.17.84c-.27.23-.55.45-.83.65-3.158 2.17-6.568 3.45-8.94 6.12-3.6 4.043-4.25 8.98-6.7 15.78.653 1.624 1.59 1.564 1.99 3.04l.05.017-2.28 14.44c-.48 3.56-2.364 7.95-2.19 12.06-.546 6.48 0 17.14 0 17.14s.343 5.04.755 6.85c.403 1.81 2.973 4.468 2.973 4.468l4.948 1.53s.764.23.83-.45c.05-.675-.355-1.13-.355-1.13s.06-.565-.18-.84c-.223-.29-2.53-1.257-2.53-1.257l-.693-.79-.88-1.75c0-.17-.088-2.196.245-3.36 0 0 1.42.23 1.577.7.074.217 1.174 1.81 2.23 2.037 1.05.23.84-.3.746-.733-.284-.95-1.8-2.834-1.94-3.62-.24-1.41-.9-2.71-1.166-3.12-.497-.61-1.14-.98-1.14-.98l-.436-.44s2.71-9.3 4.01-13.922c.8-3.83 1.3-7.89 1.34-9.4 0 0 .02-1.174.55-2.08 1.555-2.74 3.82-10.825 3.82-10.825"/>
</svg>
