<svg xmlns="http://www.w3.org/2000/svg" viewBox="0 0 80 17">
  <g fill="#09091A">
    <path d="M12.584.553V9.76c0 3.075-1.36 4.35-4.553 4.35-3.19 0-4.552-1.275-4.552-4.35V.15H.403C.135.15 0 .284 0 .553V9.91c0 5.142 3.276 6.94 8.03 6.94 4.756 0 8.032-1.798 8.032-6.94V.15h-3.075c-.27 0-.403.134-.403.403zM57.154 2.82c.252 0 .37-.083.454-.267l.89-2.202c.05-.133 0-.2-.134-.2H45.98c-1.158 0-1.594.353-1.594 1.142V15.59c0 .672.335.974 1.226.974h11.542c.252 0 .37-.084.454-.268l.89-2.2c.05-.136 0-.203-.134-.203h-10.55v-2.907c0-1.008.553-1.46 2.05-1.46h4.568c.252 0 .37-.085.454-.27l.857-2.117c.05-.135 0-.202-.135-.202h-7.795V2.82h9.34zM35.356 7.912c1.344-.706 1.9-2.033 1.9-3.595C37.255.687 34.297.15 31.24.15h-6.99c-1.158 0-1.595.353-1.595 1.142V15.59c0 .672.336.974 1.226.974h8.603c3.243 0 5.56-1.26 5.56-4.536 0-1.966-.84-3.63-2.687-4.116zM26.05 2.754h5.442c1.815 0 2.32.69 2.32 2.117 0 1.43-.505 2.118-2.32 2.118H26.05V2.754zm6.08 11.206h-6.08v-3.04c0-1.01.553-1.462 2.048-1.462h4.033c1.933 0 2.47.74 2.47 2.25 0 1.513-.537 2.252-2.47 2.252zM79.96 16.28L76.28 9.96c1.833-.47 3.31-1.68 3.31-4.755 0-3.982-2.47-5.057-6.55-5.057h-7.024c-1.16 0-1.596.353-1.596 1.142v14.87c0 .268.134.402.403.402h2.99v-4.788c0-1.008.555-1.462 2.05-1.462h3.04l3.328 5.982c.1.168.202.268.454.268h3.125c.218 0 .218-.184.15-.285zm-6.417-8.52h-5.73V2.79h5.73c2.133 0 2.604.823 2.604 2.486 0 1.68-.47 2.487-2.604 2.487z"/>
  </g>
</svg>
