<svg xmlns="http://www.w3.org/2000/svg" viewBox="0 0 141 30">
  <g fill="none" fill-rule="evenodd">
    <path fill="#F00" d="M9.95 2.364H8.465c-.555 0-1.098.103-1.628.31-.53.205-1 .533-1.41.98-.412.45-.743 1.043-.996 1.782-.25.74-.38 1.656-.38 2.746 0 1.043.12 1.915.35 2.62.23.702.55 1.27.94 1.708.4.436.87.745 1.41.927.55.182 1.12.273 1.72.273h1.48V2.364zM7.633 16.037L3.22 26H0l4.848-10.654c-1.134-.582-2.05-1.437-2.75-2.563-.7-1.128-1.05-2.66-1.05-4.6 0-1.358.2-2.552.598-3.583.398-1.03.94-1.884 1.628-2.563C3.96 1.357 4.764.85 5.68.51 6.596.17 7.562 0 8.574 0h4.16v26H9.95v-9.963H7.633z"/>
    <path fill="#000" d="M73.118 26.256c-1.954 0-3.486-.783-4.595-2.346-1.11-1.564-1.664-3.92-1.664-7.073 0-1.43.13-2.727.41-3.89.27-1.164.68-2.152 1.23-2.965.54-.81 1.22-1.442 2.02-1.89.81-.45 1.74-.673 2.8-.673.82 0 1.48.09 1.99.27.5.18.96.4 1.37.67l-.4 2.69c-.39-.34-.84-.64-1.36-.89-.52-.26-1.07-.38-1.65-.38-1.02 0-1.85.57-2.5 1.71-.65 1.14-.98 2.87-.98 5.2 0 2.3.27 4.08.81 5.32.54 1.25 1.39 1.87 2.55 1.87.7 0 1.3-.12 1.81-.35.5-.23.92-.49 1.26-.78l.65 2.1c-.488.41-1.03.75-1.63 1-.607.25-1.33.38-2.17.38zM58.61 16.873V26h-2.822V7.674h2.822v8.473l4.378-8.473h2.858l-4.522 8.618L66.497 26h-3.075l-4.812-9.127zM47.865 9.746c-.868 0-1.483.49-1.845 1.473-.362.98-.59 2.29-.688 3.94H50c0-.78-.037-1.5-.11-2.17-.07-.67-.186-1.25-.342-1.73-.158-.49-.375-.86-.652-1.13s-.62-.4-1.03-.4zm5.065 15.018c-.58.462-1.243.825-1.99 1.092-.748.266-1.58.4-2.496.4-1.88 0-3.365-.733-4.45-2.2-1.086-1.467-1.628-3.62-1.628-6.455 0-1.47.102-2.83.307-4.07.205-1.23.53-2.31.977-3.22.446-.91 1.02-1.61 1.718-2.12.7-.51 1.532-.76 2.497-.76.747 0 1.435.15 2.062.46.627.31 1.158.8 1.592 1.48.43.68.77 1.56 1.01 2.64s.36 2.4.36 3.95v1.56h-7.6c0 2.09.28 3.66.85 4.73.56 1.07 1.41 1.6 2.55 1.6.79 0 1.5-.14 2.11-.42.61-.28 1.1-.55 1.46-.812l.65 2.18zm-16.498-14.8h-3.147v.327c0 .97-.018 2.04-.054 3.19-.03 1.15-.11 2.32-.23 3.51-.12 1.19-.29 2.36-.5 3.51-.21 1.16-.52 2.22-.9 3.19h4.85V9.97zM40.666 29.6h-2.533V26h-7.815v3.6h-2.532v-5.927h1.12c.41-.97.736-2.04.978-3.218.24-1.175.428-2.387.56-3.636.133-1.25.218-2.53.254-3.82.036-1.3.054-2.55.054-3.77V7.67h8.467v16h1.44v5.93zM26.158 7.674V26h-2.786v-8.217h-4.197V26h-2.822V7.674h2.822v7.782h4.197V7.673h2.786zm63.35-6.184V26h-1.81V1.49h-5.1V0h12.046v1.49m3.582 23.493c.844 0 1.562-.352 2.153-1.055.59-.702 1.05-1.55 1.39-2.545v-5.055h-1.96c-1.52 0-2.64.364-3.37 1.09-.73.728-1.09 1.892-1.09 3.492 0 1.31.26 2.316.77 3.018.52.703 1.21 1.055 2.08 1.055zM102.278 26c-.072-.24-.15-.55-.235-.926-.085-.376-.15-.892-.2-1.546-.433.873-.976 1.564-1.627 2.073-.65.51-1.435.77-2.352.77-1.23 0-2.23-.46-3.003-1.4-.77-.93-1.15-2.23-1.15-3.91 0-1.96.52-3.45 1.56-4.45s2.55-1.51 4.53-1.51h1.99v-2.3c0-1.4-.25-2.42-.76-3.05-.5-.63-1.26-.94-2.28-.94-.77 0-1.49.18-2.17.53-.67.36-1.23.85-1.66 1.48l-.47-1.63c.36-.48.91-.91 1.65-1.29.74-.37 1.62-.56 2.66-.56 1.52 0 2.68.43 3.49 1.29.81.86 1.21 2.2 1.21 4.02v10c0 .63.04 1.27.11 1.91.07.64.17 1.13.29 1.47h-1.56zm6.766 0h-1.7V7.674h1.7v8.62l6.114-8.62h1.664l-6.006 8.51 6.44 9.818h-1.88l-6.332-9.49m15.014 8.362c.58 0 1.09-.097 1.538-.29.446-.195.825-.425 1.14-.692.36-.267.674-.594.94-.982l.542 1.418c-.265.388-.603.728-1.012 1.018-.338.268-.778.504-1.32.71-.544.205-1.165.31-1.864.31-1.834 0-3.25-.832-4.25-2.493-1.002-1.66-1.503-3.993-1.503-7 0-3.03.49-5.382 1.48-7.054.99-1.68 2.42-2.51 4.3-2.51.94 0 1.73.16 2.39.49.65.32 1.18.73 1.59 1.22l-.47 1.81c-.41-.56-.91-1.04-1.49-1.46-.58-.41-1.26-.62-2.03-.62-1.4 0-2.43.7-3.1 2.11-.67 1.4-1 3.4-1 6 0 2.52.32 4.48.97 5.89.65 1.4 1.685 2.11 3.11 2.11m15.27-11.64c0-.49.01-.93.032-1.33s.06-.8.11-1.19h-.11c-.12.41-.26.8-.43 1.18-.17.37-.35.77-.543 1.18L132.45 26h-1.446V7.674h1.592V20.4c0 .486-.013.934-.036 1.346-.025.413-.06.825-.11 1.237h.11c.12-.412.265-.818.433-1.22.17-.398.35-.804.543-1.217l5.934-12.873h1.483V26h-1.628V13.238z"/>
  </g>
</svg>
