<svg xmlns="http://www.w3.org/2000/svg" viewBox="0 0 26 19">
  <path fill="#f4d550" fill-rule="evenodd" d="M2.7 5.9C4.1 3.7 6.4 1.8 10 0l.6 1.2c-1.7 1.2-3 2.2-3.8 3-1.4 1.6-2.2 3-2.2 4.3 0 .5.2.8.4 1l.7.2L7 9.6c1.1 0 2 .4 2.8 1.2.7.8 1.1 1.8 1.1 3 0 1.4-.4 2.5-1.2 3.3a4 4 0 0 1-3.3 1.4 5 5 0 0 1-4-1.8 7 7 0 0 1-1.6-4.8c0-1.9.6-3.9 2-6zm15-.2a18 18 0 0 1 7-5.7l.6 1.2a28.4 28.4 0 0 0-3.7 3c-1.5 1.5-2.2 3-2.2 4.2 0 .4 0 .7.3 1 .1.2.4.3.8.3l1.3-.1c1.1 0 2 .4 2.8 1.2.7.8 1.1 1.8 1.1 3 0 1.4-.4 2.6-1.2 3.4-.8.9-2 1.3-3.4 1.3a5 5 0 0 1-4-1.8 7 7 0 0 1-1.5-4.8c0-2 .7-4 2-6.2z"/>
</svg>
