<svg xmlns="http://www.w3.org/2000/svg" viewBox="0 0 120 120">
  <g fill-rule="evenodd" transform="translate(23 15)">
    <path d="M0 0h74v88H0V0zm4.48 4.46v79.08h65.04V4.46H4.48z"/>
    <path d="M60.15 12.25c2.2 0 2.64 1.12 2.64 2.23 0 1.1-.4 2.23-2.7 2.23H13.3c-1.63 0-2.1-1-2.1-2.2 0-1.1.44-2.2 2.1-2.2h46.83zm0 10.03c2.2 0 2.64 1.1 2.64 2.23s-.4 2.3-2.7 2.3H13.3c-1.63 0-2.1-1.1-2.1-2.2 0-1.12.44-2.24 2.1-2.24h46.83zm0 39c2.2 0 2.64 1.1 2.64 2.2s-.4 2.23-2.7 2.23H13.3c-1.63 0-2.1-1-2.1-2.2 0-1.1.44-2.2 2.1-2.2h46.83zm0 10.02c2.2 0 2.64 1.1 2.64 2.22 0 1.1-.4 2.23-2.7 2.23H13.3c-1.63 0-2.1-1.08-2.1-2.2 0-1.13.44-2.26 2.1-2.26h46.83zm.42-39c1.68 0 2.22 1.12 2.22 2.23 0 1.12-.4 2.23-2.3 2.23H35.8c-1.5 0-2.16-1.08-2.16-2.2 0-1.13.56-2.26 2.15-2.26h24.7zm0 8.92c1.68 0 2.22 1.1 2.22 2.22s-.4 2.23-2.3 2.23H35.8c-1.5 0-2.16-1.08-2.16-2.2 0-1.13.56-2.25 2.15-2.25h24.7zm0 8.9c1.68 0 2.22 1.1 2.22 2.23s-.4 2.23-2.3 2.23H35.8c-1.5 0-2.16-1.08-2.16-2.2 0-1.13.56-2.25 2.15-2.25h24.7z"/>
    <rect width="17.94" height="24.51" x="12.33" y="31.19" rx="3"/>
  </g>
</svg>
