<svg xmlns="http://www.w3.org/2000/svg" viewBox="0 0 120 120">
  <g fill="white" fill-rule="evenodd">
    <path d="M59.1 101.16c.04 2.18-1 3.3-2.87 3.7-2 .45-3.34-.55-3.86-2.3-1.08-3.6-2.02-7.24-2.84-10.9-1.16-5.1-1.1-5.1-6.28-5.1-3.34 0-6.67.03-10-.02-6.05-.08-8.6-2.7-8.83-8.72-.25-6.18-.8-12.35-.98-18.53-.15-5.1 4.46-8.5 8.9-6.8 2.48.9 3.9 2.9 4.14 5.5.48 5.1.85 10.3 1.08 15.5.08 1.9.76 2.5 2.66 2.5 3.5 0 7 .3 10.48.5 2.42.1 4.15 1.2 4.63 3.7 1.24 6.5 2.45 13.1 3.66 19.7 0 .4 0 .8.1 1m16-14.6c-2.2 0-2.8.7-3.2 2.5-.8 3.6-1.7 7.15-2.5 10.72-.3.9-.5 1.8-.8 2.6-.8 1.8-1.9 3-4.1 2.48-2.2-.5-3.1-1.92-2.8-4.05.5-3.1 1.1-6.25 1.7-9.37l1.9-10.3c.6-3.1 1.7-4.2 4.8-4.4 3.4-.3 6.8-.6 10.2-.57 2.23 0 2.8-.86 2.85-2.94.2-4.9.5-9.84 1-14.74.45-4.2 3.44-6.7 6.95-6.35 3.8.4 6.3 3.38 6.13 7.5-.27 6.7-.6 13.4-1.1 20.06-.25 3.8-2.33 6.1-6.06 6.6-2.98.4-13.1.3-15.2.3zM46.5 36.9l3.72-3c.66.76 1.45 2.45 1.45 2.45s-.9.68-1.67 1.23c-1.94 1.42-6.1 4.8-6.1 4.8l-.04-1.23-.14-5.04s-1.6-.4-2.5-1.1c-.94-.7-1.2-2-1.24-3-.14-4.5-.1-9-.04-13.5.03-2.5 1.5-4.2 3.96-4.3 7.16-.1 14.33-.1 21.5 0 2.6.1 4.06 1.8 4.1 4.4.06 4.5.06 8.9 0 13.3-.04 2.9-1.6 4.5-4.55 4.6-2.4.1-4.8 0-7.6 0 1.86 2.5 4.3 3.86 6.72 4.3 1.95.4 5.8.3 5.8.3s2.14 1.3 5.5 1.8c-.45-1-1.3-2.73-1.3-2.73l-.4-1.13 1.05-1.3c5.1-5.24 4.27-11.1-2-14.7-.3-.16-1.34-.3-1.34-.3v-2.3c4.08.75 7.05 2.8 8.47 6.57 1.4 3.7.6 7.16-1.95 10.06-1.22 1.4-1.48 2.4-.54 4.1 1.23 2.2-.18 4.3-2.64 3.8-2.07-.4-2.7-.3-4.97-1.4-3.72 0-4.98 0-8.12-.55-3.42-.85-7.67-5.07-8.87-9.15 3.95 0 7.57-.14 11.18 0 2.36.1 3.08-.8 3-3.04-.13-3.67-.1-7.35 0-11.03.03-1.84-.56-2.73-2.58-2.7-6.5.05-13 .03-19.5 0-1.7 0-2.4.65-2.36 2.4.06 3.3.02 6.7.02 10 0 4 0 4 3.98 4.67v3z"/>
    <path d="M90.92 88.64c5.03-.4 8.7-3.7 9.57-8.7.9-5.35 1.6-10.73 2.5-16.1 0-.57.1-1.15.2-1.72.4-2.02 1.5-3.25 3.6-2.9 2 .36 2.8 1.9 2.5 3.92-.7 4.88-1.5 9.75-2.2 14.62-.3 1.56-.5 3.14-.9 4.67-1.8 7.2-8 12.24-15.9 12.64-4.2.2-8.5-.1-12.7-.22-2-.07-3.2-1.23-3.17-3.17.03-1.93 1.23-3.04 3.23-3.07 2.1 0 10.74.2 13 .1zM28.9 94.88c-8.1-1.3-13.53-6.6-14.84-14.7-.88-5.44-1.67-10.9-2.48-16.34-.4-2.68.53-4.33 2.54-4.66 1.96-.3 3.34 1.03 3.76 3.74.86 5.6 1.6 11.24 2.58 16.83.9 5.33 4.52 8.62 9.9 8.9 3.9.2 7.8-.02 11.72-.04 2.74 0 4.24 1.1 4.23 3.2 0 1.9-1.3 3-4 3.2-8.1.6-10.8.4-13.4 0zm7.52-51.85c.04 3.82-2.92 6.9-6.7 6.96-3.94 0-7.07-3-7.04-6.9.03-3.8 3.08-6.9 6.83-6.9 3.9 0 6.9 3 7 6.7m61.9 0c.1 3.8-2.9 6.8-6.7 6.9-3.9.1-7-3-7-6.9.1-3.8 3.1-6.8 6.9-6.8 3.8-.1 6.8 3 6.9 6.8"/>
  </g>
</svg>
