<?xml version="1.0" encoding="UTF-8"?>
<svg width="28px" height="124px" viewBox="0 0 28 124" version="1.1" xmlns="http://www.w3.org/2000/svg" xmlns:xlink="http://www.w3.org/1999/xlink">
    <!-- Generator: Sketch 43.1 (39012) - http://www.bohemiancoding.com/sketch -->
    <title>Artboard 3</title>
    <desc>Created with Sketch.</desc>
    <defs></defs>
    <g id="Articles" stroke="none" stroke-width="1" fill="none" fill-rule="evenodd">
        <g id="Artboard-3" fill="#FFFFFF">
            <path d="M8.14870976,90.5314978 L6.94870976,90.3064978 C6.94870976,90.3064978 5.57370976,92.5064978 5.57370976,95.0814978 C5.57370976,99.3314978 8.87370976,102.081498 14.0737098,102.081498 C19.1987098,102.081498 22.2987098,99.4564978 22.2987098,94.9564978 C22.2987098,91.1064978 19.3987098,89.5314978 19.3987098,89.5314978 L18.5987098,90.2314978 C18.5987098,90.2314978 21.0487098,91.7314978 21.0487098,94.7314978 C21.0487098,98.0064978 18.7737098,100.056498 14.0237098,100.056498 C9.22370976,100.056498 6.82370976,98.0564978 6.82370976,94.8814978 C6.82370976,92.6814978 8.14870976,90.5314978 8.14870976,90.5314978 Z M5.79870976,76.0814978 L5.79870976,87.2564978 L6.99870976,87.2564978 L6.99870976,82.6314978 L22.0487098,82.6314978 L22.0487098,80.7314978 L6.99870976,80.7314978 L6.99870976,76.0814978 L5.79870976,76.0814978 Z M7.24870976,68.9814978 L16.0237098,71.8564978 L16.0237098,66.1564978 L7.24870976,68.9814978 Z M5.79870976,69.7564978 L5.79870976,67.5314978 L22.0487098,62.1564978 L22.0487098,64.1314978 L17.0487098,65.8314978 L17.0487098,72.2064978 L22.0487098,73.9064978 L22.0487098,75.2314978 L5.79870976,69.7564978 Z M5.79870976,50.1564977 L5.79870976,61.3314977 L6.99870976,61.3314977 L6.99870976,56.7064977 L22.0487098,56.7064977 L22.0487098,54.8064977 L6.99870976,54.8064977 L6.99870976,50.1564977 L5.79870976,50.1564977 Z M13.3987098,42.2064977 L13.3987098,44.1314977 L20.9487098,44.1314977 L20.9487098,42.1564977 C20.9487098,39.4814977 19.6987098,38.1564977 17.0737098,38.1564977 C14.4737098,38.1564977 13.3987098,39.6314977 13.3987098,42.2064977 Z M22.0487098,46.0314977 L5.79870976,46.0314977 L5.79870976,44.1314977 L12.3487098,44.1314977 L12.3487098,42.2064977 C12.3487098,38.5064977 13.8487098,36.2314977 17.0237098,36.2314977 C20.1737098,36.2314977 22.0487098,38.1814977 22.0487098,42.1064977 L22.0487098,46.0314977 Z M10.6487098,30.2064977 C13.0737098,30.2064977 14.3237098,28.7814977 14.3237098,27.3064977 L14.3237098,24.0564977 L6.89870976,24.0564977 L6.89870976,27.3064977 C6.89870976,28.6564977 8.19870976,30.2064977 10.6487098,30.2064977 Z M5.79870976,22.1814977 L22.0487098,22.1814977 L22.0487098,24.0564977 L15.4987098,24.0564977 L15.4987098,27.2814977 L22.0487098,30.3064977 L22.0487098,32.2314977 L15.2737098,28.8814977 C14.7487098,30.5564977 13.2737098,32.0814977 10.7237098,32.0814977 C7.44870976,32.0814977 5.79870976,29.7564977 5.79870976,27.3814977 L5.79870976,22.1814977 Z" id="СТАТЬЯ-Copy"></path>
        </g>
    </g>
</svg>