<?xml version="1.0" encoding="UTF-8"?>
<svg width="28px" height="124px" viewBox="0 0 28 124" version="1.1" xmlns="http://www.w3.org/2000/svg" xmlns:xlink="http://www.w3.org/1999/xlink">
    <!-- Generator: Sketch 43.1 (39012) - http://www.bohemiancoding.com/sketch -->
    <title>Artboard 3</title>
    <desc>Created with Sketch.</desc>
    <defs></defs>
    <g id="Articles" stroke="none" stroke-width="1" fill="none" fill-rule="evenodd">
        <g id="Artboard-3" fill="#FFFFFF">
            <path d="M5.98620976,107.868998 L5.98620976,109.643998 L6.26120976,109.768998 L19.8862098,117.668998 L19.8862098,117.693998 L19.0612098,117.568998 L5.98620976,117.568998 L5.98620976,119.468998 L22.2362098,119.468998 L22.2362098,117.668998 L21.9612098,117.543998 L8.36120976,109.668998 L8.36120976,109.643998 L9.28620976,109.743998 L22.2362098,109.743998 L22.2362098,107.868998 L5.98620976,107.868998 Z M5.98620976,91.9439978 L5.98620976,93.8439978 L13.2862098,93.8439978 L13.2862098,101.268998 L5.98620976,101.268998 L5.98620976,103.168998 L22.2362098,103.168998 L22.2362098,101.268998 L14.4362098,101.268998 L14.4362098,93.8439978 L22.2362098,93.8439978 L22.2362098,91.9439978 L5.98620976,91.9439978 Z M5.98620976,78.2189978 L5.98620976,89.3939978 L7.18620976,89.3939978 L7.18620976,84.7689978 L22.2362098,84.7689978 L22.2362098,82.8689978 L7.18620976,82.8689978 L7.18620976,78.2189978 L5.98620976,78.2189978 Z M21.0362098,66.3939978 L21.0362098,73.7939978 L14.5862098,73.7939978 L14.5862098,67.5189978 L13.4362098,67.5189978 L13.4362098,73.7939978 L7.18620976,73.7939978 L7.18620976,66.9439978 L5.98620976,66.9439978 L5.98620976,75.6939978 L22.2362098,75.6939978 L22.2362098,66.3939978 L21.0362098,66.3939978 Z M7.08620976,59.3189978 L7.08620976,61.1189978 L15.4862098,61.1189978 L15.4862098,59.3439978 C15.4862098,57.4439978 14.5362098,55.8439978 11.2112098,55.8439978 C8.31120976,55.8439978 7.08620976,57.1689978 7.08620976,59.3189978 Z M22.2362098,63.0189978 L5.98620976,63.0189978 L5.98620976,59.1189978 C5.98620976,55.8439978 7.68620976,53.8439978 11.1362098,53.8439978 C15.1862098,53.8439978 16.5362098,56.5689978 16.5362098,59.0689978 L16.5362098,61.1189978 L22.2362098,61.1189978 L22.2362098,63.0189978 Z M13.3362098,48.7189978 L13.3362098,45.7689978 C13.3362098,44.9189978 12.6862098,43.2189978 10.1612098,43.2189978 C8.03620976,43.2189978 7.08620976,44.6439978 7.08620976,46.5939978 L7.08620976,48.7189978 L13.3362098,48.7189978 Z M14.3612098,45.6689978 L14.3612098,48.7189978 L21.1362098,48.7189978 L21.1362098,46.5689978 C21.1362098,43.8689978 19.9862098,42.4939978 17.5612098,42.4939978 C15.3112098,42.4939978 14.3612098,43.8689978 14.3612098,45.6689978 Z M22.2362098,50.6189978 L5.98620976,50.6189978 L5.98620976,46.5189978 C5.98620976,43.1689978 7.68620976,41.3939978 10.0362098,41.3939978 C11.9862098,41.3939978 13.1112098,42.5939978 13.7112098,43.7439978 C14.2112098,41.8939978 15.5362098,40.6189978 17.6362098,40.6189978 C20.5112098,40.6189978 22.2362098,42.4689978 22.2362098,46.4939978 L22.2362098,50.6189978 Z M13.5862098,33.2439978 L13.5862098,35.1689978 L21.1362098,35.1689978 L21.1362098,33.1939978 C21.1362098,30.5189978 19.8862098,29.1939978 17.2612098,29.1939978 C14.6612098,29.1939978 13.5862098,30.6689978 13.5862098,33.2439978 Z M22.2362098,37.0689978 L5.98620976,37.0689978 L5.98620976,35.1689978 L12.5362098,35.1689978 L12.5362098,33.2439978 C12.5362098,29.5439978 14.0362098,27.2689978 17.2112098,27.2689978 C20.3612098,27.2689978 22.2362098,29.2189978 22.2362098,33.1439978 L22.2362098,37.0689978 Z M14.1362098,6.84399776 C9.53620976,6.84399776 6.91120976,8.64399776 6.91120976,11.8189978 C6.91120976,14.9689978 9.53620976,16.7939978 14.1362098,16.7939978 C18.7612098,16.7939978 21.3362098,14.9939978 21.3362098,11.8189978 C21.3362098,8.61899776 18.7612098,6.84399776 14.1362098,6.84399776 Z M14.1362098,4.79399776 C19.3112098,4.79399776 22.4862098,7.41899776 22.4862098,11.8189978 C22.4862098,16.0439978 19.5612098,18.5939978 14.7612098,18.7939978 L14.7612098,21.8439978 L22.2362098,21.8439978 L22.2362098,23.7439978 L5.98620976,23.7439978 L5.98620976,21.8439978 L13.6112098,21.8439978 L13.6112098,18.7939978 C8.76120976,18.6189978 5.76120976,16.0689978 5.76120976,11.8189978 C5.76120976,7.41899776 8.98620976,4.79399776 14.1362098,4.79399776 Z" id="ИНТЕРВЬЮ-Copy"></path>
        </g>
    </g>
</svg>